{
	"asset":{
		"generator":"Khronos glTF Blender I/O v5.0.21",
		"version":"2.0"
	},
	"extensionsUsed":[
		"KHR_materials_clearcoat",
		"KHR_materials_specular"
	],
	"scene":0,
	"scenes":[
		{
			"name":"Scene",
			"nodes":[
				0,
				1
			]
		}
	],
	"nodes":[
		{
			"mesh":0,
			"name":"pCylinder25"
		},
		{
			"mesh":1,
			"name":"base_combine"
		}
	],
	"materials":[
		{
			"doubleSided":true,
			"extensions":{
				"KHR_materials_clearcoat":{
					"clearcoatRoughnessFactor":0.10000000149011612
				},
				"KHR_materials_specular":{
					"specularColorFactor":[
						2.0,
						2.0,
						2.0
					]
				}
			},
			"name":"M_MyBaseA",
			"normalTexture":{
				"index":0
			},
			"pbrMetallicRoughness":{
				"baseColorTexture":{
					"index":1
				},
				"metallicRoughnessTexture":{
					"index":2
				}
			}
		},
		{
			"doubleSided":true,
			"extensions":{
				"KHR_materials_clearcoat":{
					"clearcoatRoughnessFactor":0.10000000149011612
				},
				"KHR_materials_specular":{
					"specularColorFactor":[
						2.0,
						2.0,
						2.0
					]
				}
			},
			"name":"M_MyBaseB",
			"normalTexture":{
				"index":3
			},
			"pbrMetallicRoughness":{
				"baseColorTexture":{
					"index":4
				},
				"metallicRoughnessTexture":{
					"index":5
				}
			}
		}
	],
	"meshes":[
		{
			"name":"Mesh.015",
			"primitives":[
				{
					"attributes":{
						"POSITION":0,
						"NORMAL":1,
						"TEXCOORD_0":2
					},
					"indices":3,
					"material":0
				},
				{
					"attributes":{
						"POSITION":4,
						"NORMAL":5,
						"TEXCOORD_0":6
					},
					"indices":7,
					"material":1
				}
			]
		},
		{
			"name":"base_combine",
			"primitives":[
				{
					"attributes":{
						"POSITION":8,
						"NORMAL":9,
						"TEXCOORD_0":10
					},
					"indices":11,
					"material":1
				},
				{
					"attributes":{
						"POSITION":12,
						"NORMAL":13,
						"TEXCOORD_0":14
					},
					"indices":15,
					"material":0
				}
			]
		}
	],
	"textures":[
		{
			"sampler":0,
			"source":0
		},
		{
			"sampler":0,
			"source":1
		},
		{
			"sampler":0,
			"source":2
		},
		{
			"sampler":0,
			"source":3
		},
		{
			"sampler":0,
			"source":4
		},
		{
			"sampler":0,
			"source":5
		}
	],
	"images":[
		{
			"mimeType":"image/png",
			"name":"base_spp_M_MyBaseA_Normal.png",
			"uri":"texture/base_spp_M_MyBaseA_Normal.png"
		},
		{
			"mimeType":"image/png",
			"name":"base_spp_M_MyBaseA_BaseColor.png",
			"uri":"texture/base_spp_M_MyBaseA_BaseColor.png"
		},
		{
			"mimeType":"image/png",
			"name":"base_spp_M_MyBaseA_OcclusionRoughnessMetallic.png",
			"uri":"texture/base_spp_M_MyBaseA_OcclusionRoughnessMetallic.png"
		},
		{
			"mimeType":"image/png",
			"name":"base_spp_M_MyBaseB_Normal.png",
			"uri":"texture/base_spp_M_MyBaseB_Normal.png"
		},
		{
			"mimeType":"image/png",
			"name":"base_spp_M_MyBaseB_BaseColor.png",
			"uri":"texture/base_spp_M_MyBaseB_BaseColor.png"
		},
		{
			"mimeType":"image/png",
			"name":"base_spp_M_MyBaseB_OcclusionRoughnessMetallic.png",
			"uri":"texture/base_spp_M_MyBaseB_OcclusionRoughnessMetallic.png"
		}
	],
	"accessors":[
		{
			"bufferView":0,
			"componentType":5126,
			"count":3330,
			"max":[
				5.953908443450928,
				7.955008506774902,
				5.925103187561035
			],
			"min":[
				-5.953908920288086,
				-2.384185791015625e-07,
				-4.645660400390625
			],
			"type":"VEC3"
		},
		{
			"bufferView":1,
			"componentType":5126,
			"count":3330,
			"type":"VEC3"
		},
		{
			"bufferView":2,
			"componentType":5126,
			"count":3330,
			"type":"VEC2"
		},
		{
			"bufferView":3,
			"componentType":5123,
			"count":8688,
			"type":"SCALAR"
		},
		{
			"bufferView":4,
			"componentType":5126,
			"count":4804,
			"max":[
				5.873375415802002,
				6.603864669799805,
				7.271857261657715
			],
			"min":[
				-5.873376369476318,
				0.005040645599365234,
				-4.076219081878662
			],
			"type":"VEC3"
		},
		{
			"bufferView":5,
			"componentType":5126,
			"count":4804,
			"type":"VEC3"
		},
		{
			"bufferView":6,
			"componentType":5126,
			"count":4804,
			"type":"VEC2"
		},
		{
			"bufferView":7,
			"componentType":5123,
			"count":11226,
			"type":"SCALAR"
		},
		{
			"bufferView":8,
			"componentType":5126,
			"count":4804,
			"max":[
				5.771844387054443,
				6.4897050857543945,
				7.146150588989258
			],
			"min":[
				-5.771844387054443,
				0.0049535417929291725,
				-4.005754470825195
			],
			"type":"VEC3"
		},
		{
			"bufferView":9,
			"componentType":5126,
			"count":4804,
			"type":"VEC3"
		},
		{
			"bufferView":10,
			"componentType":5126,
			"count":4804,
			"type":"VEC2"
		},
		{
			"bufferView":11,
			"componentType":5123,
			"count":11226,
			"type":"SCALAR"
		},
		{
			"bufferView":12,
			"componentType":5126,
			"count":3330,
			"max":[
				5.850985527038574,
				7.8174920082092285,
				5.822677135467529
			],
			"min":[
				-5.850985050201416,
				-2.9291641112649813e-07,
				-4.565352916717529
			],
			"type":"VEC3"
		},
		{
			"bufferView":13,
			"componentType":5126,
			"count":3330,
			"type":"VEC3"
		},
		{
			"bufferView":14,
			"componentType":5126,
			"count":3330,
			"type":"VEC2"
		},
		{
			"bufferView":15,
			"componentType":5123,
			"count":8688,
			"type":"SCALAR"
		}
	],
	"bufferViews":[
		{
			"buffer":0,
			"byteLength":39960,
			"byteOffset":0,
			"target":34962
		},
		{
			"buffer":0,
			"byteLength":39960,
			"byteOffset":39960,
			"target":34962
		},
		{
			"buffer":0,
			"byteLength":26640,
			"byteOffset":79920,
			"target":34962
		},
		{
			"buffer":0,
			"byteLength":17376,
			"byteOffset":106560,
			"target":34963
		},
		{
			"buffer":0,
			"byteLength":57648,
			"byteOffset":123936,
			"target":34962
		},
		{
			"buffer":0,
			"byteLength":57648,
			"byteOffset":181584,
			"target":34962
		},
		{
			"buffer":0,
			"byteLength":38432,
			"byteOffset":239232,
			"target":34962
		},
		{
			"buffer":0,
			"byteLength":22452,
			"byteOffset":277664,
			"target":34963
		},
		{
			"buffer":0,
			"byteLength":57648,
			"byteOffset":300116,
			"target":34962
		},
		{
			"buffer":0,
			"byteLength":57648,
			"byteOffset":357764,
			"target":34962
		},
		{
			"buffer":0,
			"byteLength":38432,
			"byteOffset":415412,
			"target":34962
		},
		{
			"buffer":0,
			"byteLength":22452,
			"byteOffset":453844,
			"target":34963
		},
		{
			"buffer":0,
			"byteLength":39960,
			"byteOffset":476296,
			"target":34962
		},
		{
			"buffer":0,
			"byteLength":39960,
			"byteOffset":516256,
			"target":34962
		},
		{
			"buffer":0,
			"byteLength":26640,
			"byteOffset":556216,
			"target":34962
		},
		{
			"buffer":0,
			"byteLength":17376,
			"byteOffset":582856,
			"target":34963
		}
	],
	"samplers":[
		{
			"magFilter":9729,
			"minFilter":9987
		}
	],
	"buffers":[
		{
			"byteLength":600232,
			"uri":"base.bin"
		}
	]
}
